<?xml version="1.0" encoding="UTF-8"?>
<svg width="22px" height="24px" viewBox="0 0 22 24" version="1.1" xmlns="http://www.w3.org/2000/svg" xmlns:xlink="http://www.w3.org/1999/xlink">
    <!-- Generator: Sketch 50.2 (55047) - http://www.bohemiancoding.com/sketch -->
    <title>camera</title>
    <desc>Created with Sketch.</desc>
    <defs></defs>
    <g id="Symbols" stroke="none" stroke-width="1" fill="none" fill-rule="evenodd">
        <g id="nav" transform="translate(-224.000000, -14.000000)" fill="#CDC1E1" fill-rule="nonzero">
            <g id="camera">
                <g transform="translate(224.000000, 14.000000)">
                    <g id="Group">
                        <path d="M0.0286184211,11.5555556 L0.0286184211,19.5851852 C0.0286184211,20.1777778 0.629605263,20.562963 1.14473684,20.2666667 L3.77763158,18.3703704 L3.77763158,12.7703704 L1.14473684,10.8740741 C0.658223684,10.5777778 0.0286184211,10.962963 0.0286184211,11.5555556 Z" id="Shape"></path>
                        <path d="M21.7213816,10.962963 C21.7213816,10.2814815 21.1776316,9.71851852 20.5194079,9.71851852 L5.55197368,9.71851852 C4.89375,9.71851852 4.35,10.2814815 4.35,10.962963 L4.35,20.1481481 C4.35,20.8296296 4.89375,21.3925926 5.55197368,21.3925926 L20.5194079,21.3925926 C21.1776316,21.3925926 21.7213816,20.8296296 21.7213816,20.1481481 L21.7213816,10.962963 Z" id="Shape"></path>
                        <path d="M15.6256579,21.8962963 L10.4743421,21.8962963 C9.98782895,21.8962963 9.61578947,22.3111111 9.61578947,22.8148148 C9.61578947,23.3185185 9.98782895,23.7333333 10.4743421,23.7333333 L15.6256579,23.7333333 C16.1121711,23.7333333 16.4842105,23.3185185 16.4842105,22.8148148 C16.4842105,22.3111111 16.0835526,21.8962963 15.6256579,21.8962963 Z" id="Shape"></path>
                        <path d="M8.84309211,9.27407407 C11.3042763,9.27407407 13.3075658,7.2 13.3075658,4.65185185 C13.3075658,2.1037037 11.3042763,0.0296296296 8.84309211,0.0296296296 C6.38190789,0.0296296296 4.37861842,2.1037037 4.37861842,4.65185185 C4.35,7.2 6.35328947,9.27407407 8.84309211,9.27407407 Z M8.84309211,2.4 C10.0164474,2.4 10.9894737,3.40740741 10.9894737,4.62222222 C10.9894737,5.83703704 10.0164474,6.84444444 8.84309211,6.84444444 C7.66973684,6.84444444 6.69671053,5.83703704 6.69671053,4.62222222 C6.69671053,3.40740741 7.64111842,2.4 8.84309211,2.4 Z" id="Shape"></path>
                        <path d="M17.9151316,9.27407407 C20.0042763,9.27407407 21.6927632,7.52592593 21.6927632,5.36296296 C21.6927632,3.2 20.0042763,1.45185185 17.9151316,1.45185185 C15.8259868,1.45185185 14.1375,3.17037037 14.1375,5.33333333 C14.1375,7.4962963 15.8259868,9.27407407 17.9151316,9.27407407 Z M17.9151316,3.73333333 C18.7736842,3.73333333 19.4605263,4.44444444 19.4605263,5.33333333 C19.4605263,6.22222222 18.7736842,6.93333333 17.9151316,6.93333333 C17.0565789,6.93333333 16.3697368,6.22222222 16.3697368,5.33333333 C16.3697368,4.47407407 17.0565789,3.73333333 17.9151316,3.73333333 Z" id="Shape"></path>
                    </g>
                </g>
            </g>
        </g>
    </g>
</svg>