<svg width="22" height="24" viewBox="0 0 22 24" xmlns="http://www.w3.org/2000/svg"><title>camera</title><g fill="#CDC1E1"><path d="M.029 11.556v8.03c0 .592.6.977 1.116.68l2.633-1.896v-5.6l-2.633-1.896c-.487-.296-1.116.089-1.116.682zm21.692-.593c0-.682-.543-1.244-1.202-1.244H5.552c-.658 0-1.202.562-1.202 1.244v9.185c0 .682.544 1.245 1.202 1.245h14.967c.659 0 1.202-.563 1.202-1.245v-9.185zm-6.095 10.933h-5.152c-.486 0-.858.415-.858.919s.372.918.858.918h5.152c.486 0 .858-.414.858-.918s-.4-.919-.858-.919zM8.843 9.274c2.461 0 4.465-2.074 4.465-4.622S11.304.03 8.843.03 4.38 2.104 4.38 4.652C4.35 7.2 6.353 9.274 8.843 9.274zm0-6.874c1.173 0 2.146 1.007 2.146 2.222s-.973 2.222-2.146 2.222-2.146-1.007-2.146-2.222S7.64 2.4 8.843 2.4zm9.072 6.874c2.09 0 3.778-1.748 3.778-3.911 0-2.163-1.689-3.911-3.778-3.911s-3.777 1.718-3.777 3.881 1.688 3.941 3.777 3.941zm0-5.54c.859 0 1.546.71 1.546 1.6 0 .888-.687 1.6-1.546 1.6-.858 0-1.545-.712-1.545-1.6 0-.86.687-1.6 1.545-1.6z"/></g></svg>