<svg width="22" height="22" viewBox="0 0 22 22" xmlns="http://www.w3.org/2000/svg"><title>Group</title><g transform="translate(0 -.304)" fill="#18165C" fill-rule="evenodd"><path d="M10.91.394C4.89.394 0 5.284 0 11.304c0 6.018 4.89 10.908 10.91 10.908 6.018 0 10.908-4.89 10.908-10.909 0-6.018-4.89-10.909-10.909-10.909zm0 1.091a9.81 9.81 0 0 1 9.817 9.818 9.81 9.81 0 0 1-9.818 9.818 9.81 9.81 0 0 1-9.818-9.818 9.81 9.81 0 0 1 9.818-9.818z" fill-rule="nonzero"/><path d="M14.9701702 6.47083636L6.10653404 15.3344727 6.87784091 16.1058545 15.7414778 7.24221818z"/><path d="M6.83096596 6.39207273L6.05965909 7.16334545 14.9872156 16.0909091 15.7585222 15.3196364z"/></g></svg>