<svg width="23" height="20" viewBox="0 0 23 20" xmlns="http://www.w3.org/2000/svg"><title>home</title><path d="M22.273 8.22L12.663.25l-.065-.054-.077-.035a1.703 1.703 0 0 0-1.444 0L11 .196 1.34 8.21C.767 8.657.546 9.353.79 9.944c.214.518.748.839 1.4.839h2.259v7.81c0 .776.698 1.407 1.555 1.407h11.629c.857 0 1.556-.631 1.556-1.407v-7.81h2.221c.652 0 1.188-.317 1.405-.823.246-.576.027-1.276-.542-1.74zm-10.456 8.297c-1.461 0-2.649-1.075-2.649-2.396 0-1.32 1.188-2.395 2.65-2.395 1.458 0 2.646 1.075 2.646 2.395.003 1.32-1.185 2.396-2.647 2.396z" fill="#CDC1E1"/></svg>