<?xml version="1.0" encoding="UTF-8"?>
<svg width="23px" height="20px" viewBox="0 0 23 20" version="1.1" xmlns="http://www.w3.org/2000/svg" xmlns:xlink="http://www.w3.org/1999/xlink">
    <!-- Generator: Sketch 50.2 (55047) - http://www.bohemiancoding.com/sketch -->
    <title>home</title>
    <desc>Created with Sketch.</desc>
    <defs></defs>
    <g id="Symbols" stroke="none" stroke-width="1" fill="none" fill-rule="evenodd">
        <g id="nav" transform="translate(-35.000000, -16.000000)" fill="#CDC1E1" fill-rule="nonzero">
            <g id="home">
                <g transform="translate(35.692308, 16.000000)">
                    <path d="M21.5805107,8.22033898 L11.9699964,0.249776985 L11.9053796,0.196253345 L11.8283364,0.160570919 C11.3760185,-0.0535236396 10.8367163,-0.0535236396 10.3843983,0.160570919 L10.3073551,0.196253345 L0.647135589,8.20918822 C0.0755249657,8.65744871 -0.145663493,9.35325602 0.0978923379,9.94424621 C0.311625006,10.4616414 0.845956675,10.7827832 1.49709573,10.7827832 L3.75620032,10.7827832 L3.75620032,18.5927743 C3.75620032,19.3688671 4.45455939,20 5.31197532,20 L16.9405236,20 C17.7979395,20 18.4962986,19.3688671 18.4962986,18.5927743 L18.4962986,10.7827832 L20.7181242,10.7827832 C21.3692633,10.7827832 21.9060802,10.4661017 22.1222982,9.95985727 C22.3683393,9.38447814 22.1496361,8.68421053 21.5805107,8.22033898 Z M11.1250068,16.5166518 C9.66367185,16.5166518 8.47571586,15.4417187 8.47571586,14.1214689 C8.47571586,12.8012191 9.66367185,11.7262861 11.1250068,11.7262861 C12.5838566,11.7262861 13.7718125,12.8012191 13.7718125,14.1214689 C13.7742978,15.4417187 12.5863418,16.5166518 11.1250068,16.5166518 Z" id="Shape"></path>
                </g>
            </g>
        </g>
    </g>
</svg>