<svg width="14" height="20" viewBox="0 0 14 20" xmlns="http://www.w3.org/2000/svg"><title>question mark</title><g fill="#CDC1E1"><ellipse cx="6.897" cy="17.909" rx="2.115" ry="2.091"/><path d="M7.632 8.455c-1.839.727-3.034 2.5-3.034 4.545v.727h4.597V13c0-.136.092-.273.138-.318a6.634 6.634 0 0 0 4.184-6.41C13.38 2.91 10.575.183 7.218.046 5.38-.045 3.632.591 2.345 1.864 1.057 3.09.275 4.818.275 6.59h4.599c0-.546.23-1.091.643-1.455.414-.363.92-.59 1.517-.545C8.046 4.636 8.92 5.5 8.966 6.5c0 .818-.506 1.636-1.334 1.955z"/></g></svg>