<?xml version="1.0" encoding="UTF-8"?>
<svg width="28px" height="48px" viewBox="0 0 28 48" version="1.1" xmlns="http://www.w3.org/2000/svg" xmlns:xlink="http://www.w3.org/1999/xlink">
    <!-- Generator: Sketch 47.1 (45422) - http://www.bohemiancoding.com/sketch -->
    <title>next</title>
    <desc>Created with Sketch.</desc>
    <defs></defs>
    <g id="Page-1" stroke="none" stroke-width="1" fill="none" fill-rule="evenodd">
        <g id="Home" transform="translate(-712.000000, -753.000000)" fill-rule="nonzero" fill="#FE5644">
            <path d="M749.589889,775.986439 L737.953683,763.459954 C737.410408,762.890892 736.530258,762.824944 735.896873,763.40248 C735.330623,763.918785 735.316513,764.925752 735.840145,765.486415 L745.180921,775.525987 L703.454553,775.525987 C702.651203,775.525987 702,776.185754 702,776.999669 C702,777.813584 702.651203,778.473425 703.454553,778.473425 L745.180921,778.473425 L735.840145,788.513034 C735.316586,789.073623 735.35375,790.055832 735.896873,790.596894 C736.47033,791.168094 737.418699,791.117252 737.953683,790.539421 L749.589889,778.012973 C749.931781,777.673216 749.994255,777.345984 750,776.999964 C750,776.658954 749.796435,776.206165 749.589889,775.986439 Z" id="next" transform="translate(726.000000, 777.000000) rotate(-270.000000) translate(-726.000000, -777.000000) "></path>
        </g>
    </g>
</svg>