<?xml version="1.0" encoding="UTF-8"?>
<svg width="42px" height="64px" viewBox="0 0 42 64" version="1.1" xmlns="http://www.w3.org/2000/svg" xmlns:xlink="http://www.w3.org/1999/xlink">
    <!-- Generator: Sketch 50.2 (55047) - http://www.bohemiancoding.com/sketch -->
    <title>fusée</title>
    <desc>Created with Sketch.</desc>
    <defs></defs>
    <g id="Page-1" stroke="none" stroke-width="1" fill="none" fill-rule="evenodd">
        <g id="Desktop-HD" transform="translate(-1318.000000, -4128.000000)" fill="#F33A56" fill-rule="nonzero">
            <g id="last-section" transform="translate(50.000000, 2869.000000)">
                <g id="fusée" transform="translate(1268.000000, 1259.000000)">
                    <g id="Group">
                        <path d="M22.614,1.174 C21.642,0.497 20.358,0.497 19.386,1.174 C12.073,6.267 9.645,15.117 9.645,20.601 C9.645,21.954 9.645,34.748 9.645,40.515 C9.645,42.059 10.897,43.31 12.441,43.31 L14.079,48.381 L27.92,48.381 L29.558,43.31 C31.102,43.31 32.354,42.058 32.354,40.514 L32.354,20.601 C32.355,15.117 29.926,6.267 22.614,1.174 Z M24.202,18.234 C22.434,20.002 19.567,20.002 17.798,18.234 C16.03,16.466 16.03,13.599 17.798,11.83 C19.566,10.062 22.433,10.062 24.202,11.83 C25.971,13.598 25.97,16.466 24.202,18.234 Z" id="Shape"></path>
                        <path d="M0.239,43.597 L0.239,45.22 L6.643,39.333 C6.643,35.352 6.643,29.097 6.643,23.959 C2.481,29.661 0.239,36.538 0.239,43.597 Z" id="Shape"></path>
                        <path d="M35.357,23.958 L35.357,39.332 L41.761,45.219 L41.761,43.596 C41.761,36.538 39.519,29.661 35.357,23.958 Z" id="Shape"></path>
                        <path d="M14.885,51.637 C14.739,53.793 15.031,56.417 16.569,58.902 L18.114,56.007 C18.114,56.007 18.976,60.336 21,63.333 C23.015,60.345 23.886,56.007 23.886,56.007 L25.431,58.902 C26.968,56.418 27.261,53.793 27.115,51.637 L14.885,51.637 Z" id="Shape"></path>
                    </g>
                </g>
            </g>
        </g>
    </g>
</svg>