<svg width="42" height="64" viewBox="0 0 42 64" xmlns="http://www.w3.org/2000/svg"><title>fusée</title><g fill="#F33A56"><path d="M22.614 1.174a2.82 2.82 0 0 0-3.228 0c-7.313 5.093-9.741 13.943-9.741 19.427v19.914a2.795 2.795 0 0 0 2.796 2.795l1.638 5.071H27.92l1.638-5.071a2.796 2.796 0 0 0 2.796-2.796V20.601c.001-5.484-2.428-14.334-9.74-19.427zm1.588 17.06a4.53 4.53 0 1 1-6.404-6.406 4.53 4.53 0 0 1 6.404 6.406zM.239 43.597v1.623l6.404-5.887V23.959A33.309 33.309 0 0 0 .239 43.597zm35.118-19.639v15.374l6.404 5.887v-1.623a33.313 33.313 0 0 0-6.404-19.638zM14.885 51.637c-.146 2.156.146 4.78 1.684 7.265l1.545-2.895s.862 4.329 2.886 7.326c2.015-2.988 2.886-7.326 2.886-7.326l1.545 2.895c1.537-2.484 1.83-5.109 1.684-7.265h-12.23z"/></g></svg>