<?xml version="1.0" encoding="UTF-8"?>
<svg width="23px" height="24px" viewBox="0 0 23 24" version="1.1" xmlns="http://www.w3.org/2000/svg" xmlns:xlink="http://www.w3.org/1999/xlink">
    <!-- Generator: Sketch 50.2 (55047) - http://www.bohemiancoding.com/sketch -->
    <title>tick</title>
    <desc>Created with Sketch.</desc>
    <defs></defs>
    <g id="Page-1" stroke="none" stroke-width="1" fill="none" fill-rule="evenodd">
        <g id="Quizz-réponse" transform="translate(-48.000000, -385.000000)" fill="#F13455" fill-rule="nonzero">
            <g id="tick" transform="translate(48.000000, 385.000000)">
                <g id="Group">
                    <path d="M11.5,0.412914286 C5.15552118,0.412914286 -2.1045e-05,5.53645714 0,11.8414857 C-2.1045e-05,18.1466286 5.15552118,23.2700571 11.5,23.2700571 C17.8444787,23.2700571 23.0000207,18.1466286 23,11.8414857 C23.0000207,5.53645714 17.8444787,0.412914286 11.5,0.412914286 Z M11.5,1.55577143 C17.2229313,1.55577143 21.8500195,6.15417143 21.85,11.8414857 C21.8500195,17.5289143 17.2229313,22.1272 11.5,22.1272 C5.77706858,22.1272 1.14998102,17.5289143 1.15,11.8414857 C1.14998102,6.15417143 5.77706858,1.55577143 11.5,1.55577143 Z" id="Shape"></path>
                    <polygon id="Shape" points="16.2751956 7.9464 10.3971684 14.1227429 7.40537106 11.3102857 6.61474606 12.1405714 10.4420897 15.7388571 17.1107419 8.73211429 16.2751956 7.9464"></polygon>
                </g>
            </g>
        </g>
    </g>
</svg>