<svg width="23" height="24" viewBox="0 0 23 24" xmlns="http://www.w3.org/2000/svg"><title>tick</title><g fill="#F13455"><path d="M11.5.413C5.156.413 0 5.536 0 11.84c0 6.306 5.156 11.43 11.5 11.43S23 18.146 23 11.84C23 5.536 17.844.413 11.5.413zm0 1.143c5.723 0 10.35 4.598 10.35 10.285 0 5.688-4.627 10.286-10.35 10.286S1.15 17.53 1.15 11.841c0-5.687 4.627-10.285 10.35-10.285z"/><path d="M16.2751956 7.9464L10.3971684 14.1227429 7.40537106 11.3102857 6.61474606 12.1405714 10.4420897 15.7388571 17.1107419 8.73211429 16.2751956 7.9464z"/></g></svg>