<svg width="40" height="40" viewBox="0 0 40 40" xmlns="http://www.w3.org/2000/svg"><title>twitter-logo-button</title><path d="M20 0C8.972 0 0 8.972 0 20c0 11.027 8.972 20 20 20 11.027 0 20-8.973 20-20C40 8.972 31.029 0 20 0zm8.922 15.423c.009.198.014.398.014.597 0 6.083-4.63 13.095-13.099 13.095-2.6 0-5.02-.76-7.056-2.066a9.24 9.24 0 0 0 6.815-1.906 4.608 4.608 0 0 1-4.3-3.197 4.64 4.64 0 0 0 2.079-.078 4.604 4.604 0 0 1-3.692-4.514v-.058c.62.344 1.33.552 2.085.576A4.6 4.6 0 0 1 9.72 14.04c0-.844.227-1.635.623-2.315a13.07 13.07 0 0 0 9.488 4.81 4.598 4.598 0 0 1-.119-1.049 4.603 4.603 0 0 1 7.963-3.15 9.188 9.188 0 0 0 2.924-1.117 4.624 4.624 0 0 1-2.027 2.547 9.152 9.152 0 0 0 2.644-.724 9.26 9.26 0 0 1-2.294 2.38z" fill="#CDC1E1"/></svg>